<?xml version="1.0" encoding="utf-8"?>
<!-- Generator: Adobe Illustrator 21.0.0, SVG Export Plug-In . SVG Version: 6.00 Build 0)  -->
<svg version="1.1" id="Layer_1" xmlns="http://www.w3.org/2000/svg" xmlns:xlink="http://www.w3.org/1999/xlink" x="0px" y="0px"
	 viewBox="0 0 257.5 189" style="enable-background:new 0 0 257.5 189;" xml:space="preserve">
<style type="text/css">
	.st0{fill:#FFFFFF;}
</style>
<path class="st0" d="M125.6,189c0-10.1-0.1-18.8,0.1-27.4c0-1.3,1.8-2.7,3-3.8c16-14.5,32-28.9,48-43.4
	c13.9-12.5,32.9-10.1,42.9,5.6c0.5,0.8,1,1.7,1.5,2.5c4.3-2.5,3.8-5.6,1.3-8.8c-2.8-3.6-5.6-7.1-7.6-9.6
	c6.4-7.4,13.6-15.8,21.3-24.7c7.6,6.6,15.1,11.2,19.5,19c3.5,6.3,2.2,13-4.2,19.2c-11.5,11.3-23.4,22.4-35.1,33.5
	c-3.8,3.6-7.7,6.9-12.5,11.3c-0.1-2.7-0.1-4.3-0.3-5.8c-0.3-2.8-0.4-5.8-1.2-8.4c-3.5-10.5-14.4-13.7-23-6.4
	c-13.5,11.5-26.6,23.4-39.8,35.1C135.1,180.6,130.9,184.3,125.6,189z"/>
<path class="st0" d="M96.7,124.4c0.8-2.2,2.3-4.4,2.3-6.7c0.2-12.8,0.1-25.6,0.1-38.4c0-2,0-4,0-5.8c7.7,1,14.8,2,22.8,3.1
	c0,2.3,0,4.9,0,7.5c0,11.3,0.1,22.6-0.1,33.9c0,2.1-0.9,4.8-2.4,6.1c-12.6,11.5-25.3,22.7-38.1,34c-0.5,0.4-1.1,0.6-2.5,1.4
	c0-2.5,0-4.2,0-6c-0.4-13-12.9-20.3-24-13.6c-5,3-9.1,7.5-13.4,11.4c-12.6,11.4-25.1,23-37.7,34.4c-0.8,0.8-1.8,1.4-3.7,2.8
	c0-9.5-0.1-18.2,0.1-26.8c0-1.2,1.6-2.5,2.7-3.5c15.2-13.9,30.4-27.7,45.5-41.6c9.2-8.5,19.9-10,31.5-6.6
	c7.2,2.1,11.7,7.6,15.1,14.1C95.7,124.3,96.2,124.4,96.7,124.4z"/>
<path class="st0" d="M89.6,34c2.8-5.1,5.1-10.2,8.2-14.7c9.7-13.8,22.7-21.6,40.1-18.7c12,1.9,16.5,14.1,8.3,23.1
	c-4.6,5-11,8.7-17.1,12.1c-4.6,2.6-9.9,4.1-15.1,5.6c-3.7,1-3.9,3-2.8,6c3,8.8,14.1,14,23.9,10.3c6.2-2.4,11.9-6,18.1-9.1
	c-0.3,0.8-0.5,1.8-1,2.6c-8.7,14-21,21.6-37.8,20.8C99.5,71.1,90.2,62,89,47.4c-0.1-1-0.2-2-0.2-2.9C75.2,40.2,72.2,35.5,76,24.1
	C79.8,28.8,83.4,33.3,89.6,34z M109.7,36.8c12.6-1,20.8-7.8,22.7-18.5c0.7-4,2-8.8-2.9-11.2c-4.8-2.4-8.8,0.3-12.2,3.5
	c-1.4,1.3-2.6,3.1-3.5,4.9C110.3,22,109.3,29.1,109.7,36.8z"/>
<path class="st0" d="M0,156.4c0-10-0.1-18.7,0.1-27.4c0-1.4,1.5-2.9,2.7-4c12.8-11.9,25.7-23.8,38.6-35.6c1.2-1.1,3-1.5,4.5-2.2
	c0.7,1.7,1.6,3.4,2,5.2c2.7,14.6-2.3,25.5-14.5,34.4c-10,7.3-18.5,16.7-27.7,25.1C4.3,153.1,2.7,154.3,0,156.4z"/>
<path class="st0" d="M132.1,80.1c-2-0.2-3.3-0.2-4.3-0.6c-0.8-0.3-1.9-1.2-1.9-1.8c0-1,0.7-2.4,1.5-2.7c6.7-3.2,13.5-6.2,20.5-9.4
	c0,0.3,0.3,1.3,0.3,2.4c-0.1,21.7-0.1,43.5-0.4,65.2c0,2.1-1.1,4.6-2.6,6.1c-3.8,4-8,7.5-13.1,12.2
	C132.1,126.8,132.1,103.7,132.1,80.1z"/>
<path class="st0" d="M46.8,50c6.8,6.3,13.2,12.2,20.1,18.5c-6.4,5.9-12.3,11.5-18.5,17c-0.6,0.5-2.7,0.4-3.4-0.3
	C39,80.1,33.1,74.7,26.8,69C33.5,62.7,39.9,56.6,46.8,50z"/>
<path class="st0" d="M97.9,184.3c-6.7-6-13.2-11.8-20.1-18c6.8-6.4,13.2-12.5,20.1-19c6.6,6.1,13.1,12.1,20.1,18.5
	C111.3,172,104.8,178,97.9,184.3z"/>
</svg>
